<?xml version="1.0" standalone="no"?>
<!DOCTYPE svg PUBLIC "-//W3C//DTD SVG 20010904//EN" "http://www.w3.org/TR/2001/REC-SVG-20010904/DTD/svg10.dtd">
<svg xmlns="http://www.w3.org/2000/svg" version="1.0" width="2000.000000pt" height="2220.000000pt" viewBox="0 0 2000.000000 2220.000000" preserveAspectRatio="xMidYMid meet" fill="#2993FC">
<metadata fill="#2993FC">
Silhouette image created by Creazilla.com with potrace 1.16, written by Peter Selinger 2001-2019
</metadata>
<g transform="translate(0.000000,2220.000000) scale(0.100000,-0.100000)" fill="#2993FC">
<path d="M10271 22185 c-84 -24 -150 -64 -221 -136 -70 -70 -140 -188 -165 -274 -30 -103 -42 -347 -70 -1425 -18 -663 -29 -800 -64 -800 -6 0 -25 13 -43 29 -41 35 -71 51 -97 51 -11 0 -33 14 -49 30 -18 18 -41 30 -56 30 -17 0 -41 14 -67 40 -49 47 -125 92 -195 115 -35 11 -55 25 -68 46 -12 20 -25 29 -43 29 -17 0 -43 16 -74 45 -26 25 -65 53 -85 62 -21 10 -48 28 -60 41 -13 12 -33 22 -44 22 -29 0 -73 24 -151 81 -37 27 -91 60 -120 73 -30 13 -85 47 -124 76 -75 56 -124 83 -166 93 -15 4 -51 25 -80 47 -30 23 -66 44 -81 47 -15 3 -34 16 -43 29 -12 18 -25 24 -53 24 -41 0 -57 8 -57 29 0 16 -18 27 -57 35 -14 3 -50 26 -79 51 -29 25 -60 45 -70 45 -9 0 -33 14 -54 30 -41 32 -72 44 -102 38 -10 -2 -26 7 -37 21 -30 36 -133 100 -192 117 -32 9 -66 29 -91 52 -54 51 -152 101 -220 112 -34 6 -63 17 -70 26 -30 41 -270 -11 -416 -89 -72 -38 -120 -97 -177 -219 -90 -193 -108 -437 -37 -496 9 -8 23 -39 32 -70 19 -65 67 -119 114 -128 23 -5 31 -12 31 -29 0 -30 33 -58 110 -93 36 -16 74 -39 84 -50 11 -12 31 -22 45 -22 18 0 31 -9 42 -28 28 -49 191 -142 249 -142 11 0 24 -9 30 -20 7 -13 21 -20 40 -20 25 0 30 -4 30 -23 0 -13 10 -33 23 -45 29 -27 245 -121 299 -130 37 -7 46 -13 66 -50 13 -23 36 -50 51 -61 43 -31 228 -101 266 -101 32 0 35 -2 35 -30 0 -46 32 -69 191 -140 100 -45 153 -75 185 -106 25 -23 95 -68 156 -100 109 -57 170 -95 277 -174 30 -22 81 -50 112 -61 32 -12 66 -30 75 -40 10 -12 30 -19 51 -19 26 0 35 -5 42 -23 14 -36 77 -86 155 -121 146 -67 189 -91 227 -128 41 -40 129 -88 247 -133 57 -22 74 -34 79 -53 3 -13 4 -153 1 -311 -3 -157 -1 -299 4 -316 5 -17 4 -53 -2 -84 -5 -30 -17 -268 -25 -530 -23 -708 -57 -1426 -69 -1438 -7 -8 -145 70 -190 107 -27 22 -59 43 -72 46 -13 3 -34 21 -48 39 -14 18 -37 36 -52 39 -15 4 -36 18 -46 32 -11 14 -42 36 -69 49 -26 14 -64 38 -82 55 -25 22 -45 30 -71 30 -32 0 -36 3 -36 25 0 17 -12 32 -42 53 -24 17 -77 57 -118 91 -41 34 -92 69 -113 79 -22 9 -45 29 -53 44 -14 27 -19 30 -53 32 -8 1 -35 28 -61 61 -25 33 -60 66 -76 74 -16 8 -50 33 -75 56 -25 23 -56 46 -70 50 -13 4 -40 25 -60 46 -20 21 -46 39 -57 39 -11 0 -27 11 -36 25 -9 14 -21 25 -27 25 -15 0 -78 45 -208 148 -102 81 -181 131 -234 146 -10 3 -23 20 -29 36 -7 23 -18 33 -40 37 -18 4 -33 14 -36 25 -2 10 -19 25 -36 32 -17 7 -68 45 -113 84 -46 39 -100 80 -121 91 -22 11 -46 31 -55 45 -12 18 -27 26 -54 28 -31 2 -39 7 -41 26 -2 13 -19 32 -40 46 -20 13 -71 52 -112 87 -89 75 -163 130 -205 152 -17 8 -50 34 -73 56 -23 23 -50 41 -60 41 -10 0 -38 21 -62 46 -25 25 -60 52 -77 59 -18 8 -33 18 -33 24 0 20 -33 41 -66 41 -30 0 -34 3 -34 25 0 20 -5 25 -26 25 -33 0 -82 -29 -90 -53 -3 -11 1 -67 10 -126 30 -187 114 -1065 161 -1661 19 -245 59 -600 81 -725 9 -49 20 -146 24 -215 5 -69 13 -147 19 -175 5 -27 15 -144 21 -260 15 -291 37 -520 56 -582 22 -69 10 -107 -33 -111 -24 -2 -52 11 -129 64 -55 37 -119 76 -144 87 -25 11 -55 31 -67 43 -13 14 -34 24 -49 24 -18 0 -43 15 -75 45 -51 48 -177 115 -215 115 -15 0 -29 12 -43 35 -11 19 -27 35 -34 35 -8 0 -54 25 -103 56 -117 73 -158 94 -188 94 -18 0 -29 9 -43 38 -12 25 -26 38 -43 40 -13 2 -44 21 -68 43 -25 21 -60 41 -79 45 -21 4 -50 22 -73 45 -21 22 -47 39 -57 39 -10 0 -24 9 -31 20 -6 11 -36 31 -64 46 -29 14 -66 39 -83 54 -16 15 -46 31 -67 34 -22 4 -42 16 -51 30 -9 13 -28 26 -44 29 -15 3 -73 42 -128 86 -55 45 -111 84 -125 87 -14 3 -31 7 -37 10 -18 5 -17 83 7 609 20 437 27 550 55 865 8 91 21 282 30 425 8 143 22 346 30 450 27 356 55 1046 55 1356 0 208 -5 233 -67 330 -21 31 -50 77 -64 101 -17 29 -40 51 -65 63 -21 10 -57 31 -79 47 -95 67 -353 65 -495 -4 -124 -60 -247 -218 -294 -377 -28 -96 -50 -353 -76 -886 -6 -121 -17 -301 -26 -400 -8 -99 -14 -220 -13 -270 2 -49 -2 -115 -9 -145 -6 -30 -23 -237 -37 -460 -14 -223 -30 -459 -35 -525 -6 -66 -16 -193 -22 -283 l-12 -163 -36 6 c-67 12 -127 36 -150 60 -13 14 -32 25 -42 25 -10 0 -43 23 -74 51 -64 58 -163 109 -211 109 -28 0 -33 3 -33 25 0 18 -9 29 -32 41 -18 9 -51 31 -73 49 -52 42 -78 55 -109 55 -17 0 -34 12 -53 35 -20 25 -36 35 -56 35 -19 0 -31 7 -39 25 -6 14 -25 29 -45 36 -19 6 -54 28 -79 50 -39 34 -52 39 -95 39 -42 0 -49 3 -49 19 0 26 -26 51 -55 51 -14 0 -43 20 -78 55 -30 30 -61 55 -67 55 -7 0 -29 12 -49 27 -19 15 -53 30 -75 33 -32 4 -41 10 -46 30 -4 19 -13 26 -36 28 -18 2 -53 21 -85 47 -45 38 -61 45 -96 45 -35 0 -43 3 -43 19 0 27 -26 44 -58 38 -19 -4 -40 1 -61 14 -34 21 -66 25 -76 9 -4 -6 -23 -7 -44 -4 -87 14 -296 -72 -381 -156 -92 -93 -180 -328 -180 -482 0 -68 19 -128 40 -128 6 0 10 -21 10 -46 0 -41 5 -53 43 -94 23 -26 55 -63 70 -84 17 -22 49 -46 81 -60 37 -16 59 -34 74 -60 24 -41 48 -46 62 -13 8 20 9 20 9 -9 1 -49 61 -91 199 -139 46 -17 68 -31 85 -55 26 -38 133 -106 192 -121 22 -6 52 -22 67 -37 17 -15 39 -25 57 -25 26 0 30 -4 33 -31 3 -29 11 -35 127 -92 91 -44 132 -71 154 -98 19 -24 55 -48 102 -70 40 -18 75 -38 79 -45 4 -6 24 -11 45 -11 30 0 42 -6 55 -25 10 -16 26 -25 41 -25 18 0 25 -5 25 -18 0 -28 36 -56 140 -106 52 -26 108 -58 125 -71 l30 -24 -56 -54 c-66 -64 -165 -132 -309 -212 -58 -32 -159 -93 -225 -135 -210 -134 -418 -249 -470 -260 -20 -4 -31 -13 -33 -26 -2 -13 -16 -25 -38 -33 -19 -7 -78 -42 -132 -78 -53 -36 -119 -76 -145 -89 -26 -14 -50 -31 -54 -39 -3 -8 -31 -22 -62 -31 -64 -19 -101 -39 -168 -94 -26 -22 -100 -67 -164 -101 -65 -34 -149 -86 -187 -114 -38 -29 -106 -74 -153 -101 -163 -92 -235 -139 -331 -216 -227 -183 -297 -310 -285 -517 9 -146 34 -226 89 -282 17 -16 40 -29 54 -29 20 0 24 -5 24 -31 0 -44 36 -73 147 -119 154 -64 279 -79 351 -40 20 10 54 22 75 25 44 7 161 67 332 170 66 40 176 103 245 140 135 73 240 141 240 154 0 5 19 11 41 14 25 3 52 16 69 32 15 14 43 30 62 36 22 5 46 23 62 44 21 27 34 35 57 35 22 0 40 10 61 32 16 18 38 33 49 35 10 2 48 23 84 48 37 25 75 45 85 45 11 0 27 11 36 25 11 17 25 25 46 25 21 0 41 11 69 40 22 22 49 40 60 40 26 0 56 16 97 51 18 16 40 29 50 29 9 0 33 18 53 40 27 29 45 40 66 40 19 0 37 9 51 25 13 15 33 25 49 25 33 0 46 8 61 36 6 11 38 35 72 53 61 33 154 87 415 244 77 46 210 124 295 172 85 49 189 108 230 132 89 51 169 83 211 83 22 0 41 -12 77 -48 56 -57 146 -113 220 -138 30 -9 56 -23 59 -30 3 -8 20 -14 39 -14 23 0 34 -5 34 -15 0 -29 57 -74 159 -126 57 -30 113 -64 125 -76 13 -14 33 -23 54 -23 21 0 32 -5 32 -14 0 -21 49 -58 153 -117 50 -28 111 -69 135 -89 23 -21 75 -55 115 -75 39 -21 96 -53 125 -72 29 -18 64 -33 77 -33 15 0 25 -6 25 -14 0 -22 30 -47 49 -41 10 3 20 -3 26 -17 6 -12 48 -42 100 -70 50 -26 104 -63 120 -82 33 -37 81 -64 163 -90 28 -10 65 -31 81 -47 19 -18 40 -29 58 -29 22 0 31 -8 43 -33 9 -18 36 -46 65 -64 99 -64 95 -56 41 -88 -27 -16 -94 -47 -150 -70 -55 -23 -183 -79 -282 -124 -100 -44 -184 -81 -188 -81 -3 0 -64 -27 -135 -60 -70 -33 -150 -66 -177 -73 -27 -7 -93 -39 -146 -71 -53 -31 -139 -72 -190 -91 -51 -18 -140 -52 -198 -76 -58 -23 -118 -47 -134 -52 -17 -6 -44 -23 -61 -38 -17 -15 -55 -36 -85 -47 -150 -54 -384 -153 -436 -185 -33 -19 -82 -41 -109 -48 -28 -7 -102 -34 -165 -61 -63 -27 -140 -56 -170 -64 -30 -8 -79 -32 -110 -53 -55 -39 -273 -137 -400 -181 -36 -12 -106 -46 -157 -77 -50 -30 -116 -61 -145 -68 -67 -18 -217 -92 -225 -111 -3 -8 -15 -14 -27 -14 -52 0 -85 -56 -71 -120 6 -26 11 -30 42 -30 26 0 46 -9 76 -36 47 -39 163 -98 217 -109 19 -4 64 -18 99 -31 35 -13 74 -24 86 -24 14 0 37 -15 56 -35 36 -38 69 -46 69 -17 1 10 6 4 15 -15 17 -41 100 -80 335 -161 196 -67 230 -81 230 -95 0 -5 22 -7 50 -5 47 3 50 2 56 -25 7 -35 36 -50 262 -133 304 -113 336 -124 361 -124 13 0 32 -11 44 -27 35 -44 361 -189 502 -224 28 -6 60 -21 72 -32 15 -14 29 -18 47 -13 19 5 26 2 26 -8 0 -23 45 -53 165 -112 111 -54 243 -104 276 -104 10 0 23 -9 29 -20 7 -14 21 -20 45 -20 26 0 38 -7 55 -30 16 -23 29 -30 55 -30 20 0 35 -6 38 -15 4 -8 32 -28 65 -44 110 -55 110 -85 2 -122 -83 -28 -158 -64 -238 -115 -29 -19 -105 -61 -170 -93 -64 -33 -134 -71 -156 -85 -48 -33 -159 -89 -208 -105 -21 -7 -95 -50 -165 -97 -82 -54 -149 -91 -189 -104 -77 -23 -112 -41 -169 -84 -24 -19 -125 -75 -224 -126 -100 -50 -205 -109 -234 -131 -60 -46 -83 -53 -140 -47 -65 8 -234 94 -294 150 -29 27 -69 56 -88 64 -20 8 -38 21 -41 29 -3 7 -24 21 -47 30 -23 9 -60 32 -83 50 -22 18 -72 50 -110 71 -38 21 -85 54 -105 75 -38 38 -187 119 -220 119 -10 0 -24 9 -31 21 -7 11 -34 31 -60 45 -25 13 -57 37 -70 53 -12 16 -45 39 -73 51 -27 12 -63 35 -78 52 -22 23 -33 29 -52 24 -20 -5 -31 0 -55 27 -54 61 -270 197 -314 197 -8 0 -16 10 -18 22 -2 15 -13 25 -35 32 -18 5 -35 17 -39 28 -3 10 -18 21 -34 25 -16 3 -54 26 -84 52 -31 26 -98 71 -148 100 -51 29 -127 79 -168 111 -41 33 -101 72 -132 87 -31 15 -59 36 -61 46 -3 10 -15 17 -29 17 -30 0 -69 24 -148 94 -41 36 -81 61 -108 69 -29 7 -51 23 -68 45 -23 29 -29 32 -60 26 -21 -4 -34 -2 -34 4 0 14 -116 97 -171 122 -24 11 -56 20 -70 20 -14 0 -38 11 -53 25 -25 23 -35 25 -117 25 -119 0 -229 -24 -311 -67 -83 -43 -199 -161 -245 -249 l-33 -62 0 -185 c0 -183 0 -186 25 -215 17 -20 25 -42 25 -67 0 -45 15 -75 38 -75 9 0 36 -22 59 -49 43 -49 165 -122 229 -135 24 -5 31 -12 27 -24 -10 -39 83 -111 144 -112 12 0 27 -9 33 -20 6 -11 23 -22 38 -26 54 -12 62 -16 62 -29 0 -36 137 -118 220 -131 25 -4 44 -13 47 -23 20 -63 69 -103 184 -146 60 -23 72 -32 84 -62 11 -27 19 -34 37 -31 15 2 30 -5 41 -19 10 -12 49 -39 87 -58 37 -20 86 -52 108 -71 22 -19 46 -34 53 -34 6 0 27 -16 46 -35 19 -19 53 -45 76 -56 23 -12 59 -37 80 -55 20 -19 48 -34 61 -34 14 0 30 -10 40 -25 9 -14 44 -39 79 -56 34 -17 77 -42 95 -56 23 -17 40 -23 57 -19 21 5 24 2 27 -26 3 -30 10 -37 93 -80 49 -27 93 -55 98 -63 4 -8 20 -15 35 -15 19 -1 33 -10 47 -33 26 -41 79 -76 126 -83 21 -4 46 -17 58 -30 12 -13 30 -24 40 -24 32 0 50 -11 44 -26 -3 -7 5 -29 16 -48 21 -33 15 -56 -9 -41 -14 9 -48 -12 -55 -34 -3 -11 -19 -21 -39 -25 -18 -4 -84 -38 -147 -77 -63 -39 -139 -81 -169 -93 -30 -13 -104 -53 -165 -91 -60 -37 -139 -80 -175 -94 -36 -15 -107 -53 -158 -84 -51 -32 -213 -121 -360 -199 -431 -227 -513 -277 -584 -356 -72 -80 -128 -208 -153 -350 -13 -72 -11 -106 7 -129 5 -6 12 -38 15 -70 6 -65 17 -93 37 -93 8 0 22 -25 32 -57 18 -53 22 -58 52 -61 26 -3 32 -8 32 -27 0 -30 41 -79 77 -93 139 -51 243 -77 315 -77 61 0 80 4 90 17 9 12 37 20 90 27 56 6 85 16 110 34 18 13 89 55 158 92 69 38 141 78 160 90 19 12 89 50 155 85 66 35 131 73 145 86 14 13 45 27 70 33 30 7 53 20 70 40 15 19 43 36 71 45 26 7 87 36 135 64 49 28 108 56 131 62 31 8 47 19 58 40 13 25 22 30 53 30 29 0 43 7 64 30 14 17 36 30 48 30 27 0 70 22 94 49 11 12 37 24 60 28 22 3 49 16 60 28 12 12 36 25 55 28 18 4 51 23 72 42 44 39 92 47 104 17 5 -9 11 -388 16 -842 4 -469 11 -838 16 -855 6 -17 7 -85 3 -160 -3 -71 -3 -380 0 -685 5 -493 8 -559 23 -594 11 -26 15 -51 11 -73 -7 -39 12 -67 52 -77 21 -6 24 -12 24 -51 0 -48 7 -57 60 -83 22 -11 36 -25 38 -40 5 -34 31 -39 53 -11 l19 24 0 -26 c0 -41 35 -77 92 -94 62 -18 151 -20 181 -3 13 7 49 11 84 9 70 -3 122 11 148 39 10 11 26 20 35 20 67 0 236 212 271 340 10 35 14 468 19 1875 7 1887 8 1903 47 1963 8 13 31 30 51 39 73 29 263 137 301 170 25 21 50 33 68 33 16 0 49 13 74 28 87 55 268 152 679 362 228 116 456 236 505 265 78 46 543 295 551 295 1 0 1 -24 -2 -53 -2 -28 -9 -117 -15 -197 -5 -80 -21 -224 -34 -320 -14 -96 -31 -249 -40 -340 -8 -91 -24 -226 -35 -300 -11 -74 -24 -203 -30 -285 -6 -83 -17 -195 -26 -250 -35 -235 -54 -378 -64 -505 -6 -74 -15 -166 -21 -205 -5 -38 -14 -124 -20 -190 -11 -131 -35 -335 -49 -430 -5 -33 -19 -169 -30 -301 -11 -133 -30 -293 -41 -355 -24 -136 -37 -440 -20 -481 19 -50 49 -37 241 107 58 43 119 84 137 91 18 8 42 28 55 44 12 17 45 41 73 54 27 13 96 65 153 115 56 50 119 99 140 110 20 10 68 47 107 81 38 34 92 72 120 85 27 14 99 67 159 119 60 52 128 104 152 115 24 12 51 32 60 46 9 15 35 35 58 47 67 34 184 118 218 157 18 21 63 51 107 72 42 20 95 51 117 70 23 19 78 61 124 94 46 33 90 70 98 83 8 13 30 29 49 37 19 8 62 41 96 73 34 32 102 85 151 117 99 65 265 195 311 244 16 17 45 36 65 41 20 5 101 53 180 105 78 53 147 92 151 88 5 -5 13 -49 19 -98 10 -90 9 -132 -22 -945 -7 -173 -11 -341 -10 -372 1 -32 2 -75 3 -95 2 -70 -20 -623 -27 -661 -12 -69 -30 -90 -88 -107 -29 -9 -79 -33 -112 -54 -32 -21 -214 -117 -404 -214 -190 -96 -403 -207 -475 -247 -71 -39 -184 -97 -250 -130 -117 -56 -398 -201 -840 -432 -121 -64 -326 -169 -455 -235 -311 -159 -552 -288 -621 -334 -113 -76 -209 -212 -243 -344 -14 -55 -36 -242 -36 -307 0 -30 26 -62 46 -54 10 4 14 -11 16 -62 3 -65 4 -67 30 -67 21 1 24 -2 16 -12 -25 -31 32 -103 83 -103 9 0 24 -11 33 -25 12 -17 25 -25 47 -25 19 0 32 -6 36 -17 17 -48 76 -73 89 -38 9 22 21 18 28 -10 3 -13 15 -29 26 -35 17 -9 22 -7 28 10 8 20 16 22 133 23 l124 2 240 116 c132 64 257 122 278 129 23 7 43 21 49 35 11 25 47 45 79 45 11 0 30 11 42 24 12 12 38 26 58 30 20 3 54 20 75 36 20 17 49 33 63 36 54 12 60 16 70 44 9 28 14 30 57 30 52 0 109 29 119 60 4 11 13 20 20 20 37 0 501 228 623 307 30 19 74 38 98 42 29 6 51 17 65 35 34 43 107 79 201 100 17 4 34 18 43 36 13 26 21 30 54 30 27 0 49 8 69 24 16 14 52 34 80 45 28 11 95 42 149 69 54 27 120 57 147 66 81 28 79 35 67 -290 -6 -153 -17 -571 -26 -929 -8 -357 -17 -731 -19 -830 -7 -248 14 -487 49 -555 22 -45 84 -110 105 -110 11 0 15 -10 15 -32 0 -31 5 -35 65 -65 36 -18 112 -44 169 -59 86 -22 119 -26 201 -22 88 3 104 7 173 41 93 46 227 167 263 239 52 103 69 244 84 713 28 856 41 1292 46 1525 3 140 10 272 15 293 9 34 12 37 37 31 49 -11 196 -85 247 -124 56 -43 263 -147 312 -156 22 -4 33 -13 37 -30 8 -31 70 -72 208 -139 62 -30 140 -75 173 -100 77 -59 141 -95 236 -134 42 -18 95 -48 118 -68 23 -19 45 -33 48 -29 3 3 26 -13 50 -35 25 -23 88 -61 148 -89 56 -26 107 -56 113 -66 8 -14 21 -18 51 -17 31 2 39 -1 34 -13 -3 -8 2 -25 11 -38 18 -28 186 -116 221 -116 12 0 36 -14 53 -30 18 -17 39 -30 47 -30 8 0 28 -13 43 -30 15 -16 96 -65 181 -110 84 -44 169 -94 189 -111 60 -53 116 -72 222 -77 114 -5 249 18 328 55 95 45 223 200 271 327 32 86 45 202 32 294 -27 206 -135 353 -357 486 -55 33 -130 83 -169 112 -38 28 -104 68 -145 89 -41 21 -88 48 -105 60 -16 12 -84 53 -150 90 -66 37 -157 91 -201 121 -45 30 -101 62 -125 72 -24 11 -81 45 -127 76 -45 31 -89 56 -96 56 -8 0 -21 11 -30 25 -10 16 -26 25 -42 25 -33 0 -60 15 -110 60 -23 21 -55 41 -73 45 -17 4 -31 13 -31 21 0 16 -39 34 -75 34 -14 0 -29 8 -34 19 -6 10 -28 26 -49 34 -21 9 -72 41 -113 72 -41 31 -108 72 -149 92 -41 20 -100 57 -131 82 -68 55 -198 121 -251 129 -23 3 -38 10 -38 18 0 22 -38 54 -64 54 -17 0 -34 12 -52 35 -27 36 -51 44 -72 23 -9 -9 -12 -9 -12 3 0 27 -35 49 -101 63 -56 11 -64 16 -71 41 -9 36 -25 46 -65 39 -27 -5 -33 -2 -45 22 -8 18 -23 30 -43 34 -41 9 -73 27 -118 67 -21 18 -51 36 -67 40 -16 3 -35 12 -41 19 -21 26 14 1728 46 2244 7 114 25 282 31 292 3 4 26 -9 51 -28 61 -46 137 -84 174 -87 21 -1 31 -8 35 -23 7 -28 57 -74 117 -108 27 -15 51 -34 54 -42 3 -8 19 -14 39 -14 27 0 36 -6 48 -29 9 -16 33 -43 54 -60 40 -31 157 -91 179 -91 7 0 19 -15 27 -33 15 -37 60 -79 117 -107 20 -11 58 -40 82 -64 25 -24 78 -67 119 -94 40 -27 109 -80 153 -116 43 -37 96 -72 117 -78 21 -6 40 -19 43 -30 4 -10 17 -21 29 -24 13 -3 47 -30 77 -61 30 -30 77 -65 104 -78 28 -12 77 -46 110 -75 33 -28 90 -66 127 -83 50 -23 71 -39 79 -60 8 -19 53 -60 124 -112 62 -45 141 -106 175 -134 35 -28 70 -51 77 -51 7 0 57 -36 112 -80 55 -45 125 -92 156 -105 30 -14 55 -29 55 -34 0 -18 65 -74 165 -141 56 -38 105 -75 108 -84 3 -8 34 -33 69 -57 35 -23 92 -66 128 -94 36 -29 90 -67 120 -85 30 -17 79 -52 110 -76 62 -49 93 -55 111 -22 26 48 -1 552 -45 844 -9 56 -29 252 -46 435 -42 456 -64 688 -104 1069 -19 179 -42 397 -51 485 -9 88 -25 243 -35 345 -10 102 -26 277 -35 390 -9 113 -20 232 -25 265 -6 38 -6 63 0 69 12 12 56 -8 155 -69 39 -24 88 -48 111 -54 23 -6 59 -24 80 -41 89 -68 124 -90 227 -144 60 -31 141 -78 180 -105 40 -26 144 -92 232 -146 88 -54 198 -124 245 -155 47 -31 141 -90 210 -130 164 -96 367 -233 455 -307 108 -90 107 -89 101 -338 -8 -334 -85 -1616 -158 -2625 -6 -85 -11 -330 -12 -545 l-1 -390 28 -59 c133 -286 400 -398 649 -273 88 44 185 144 232 238 77 157 95 319 141 1254 17 342 35 613 65 985 10 135 24 324 30 420 13 209 32 348 57 416 l19 49 63 9 63 9 121 -61 c135 -68 254 -142 492 -308 199 -139 579 -391 746 -494 70 -44 162 -103 206 -133 139 -94 276 -131 413 -110 103 16 172 54 261 142 60 60 79 86 89 121 6 25 21 63 32 86 19 37 20 53 15 175 -6 155 -28 242 -75 312 -71 102 -200 224 -397 372 -87 65 -218 154 -800 536 -344 227 -462 310 -526 371 -49 47 -51 51 -46 91 5 35 15 50 59 90 68 62 253 187 277 187 11 0 44 21 75 48 73 61 289 199 478 304 431 240 937 567 1248 807 252 194 344 338 345 541 0 69 -4 92 -21 120 -11 19 -26 60 -33 90 -15 72 -36 102 -107 155 -91 69 -173 106 -251 115 -37 5 -82 14 -98 21 -27 10 -36 9 -80 -15 -28 -14 -61 -26 -75 -26 -64 0 -290 -125 -560 -308 -85 -58 -200 -131 -255 -162 -55 -32 -170 -101 -255 -155 -254 -160 -792 -491 -1300 -798 -201 -122 -423 -238 -509 -267 l-64 -21 -67 20 c-84 26 -254 128 -739 445 -201 131 -426 275 -500 319 -139 83 -672 436 -726 480 l-30 25 25 21 c37 30 143 84 250 126 52 21 205 90 340 155 271 130 578 268 980 443 146 63 301 132 345 152 90 42 450 206 975 445 387 176 463 215 521 267 32 29 39 42 39 72 0 56 -31 95 -112 142 -78 46 -796 401 -1089 539 -95 45 -304 141 -464 212 -159 71 -409 187 -555 258 -146 70 -377 181 -515 245 -303 142 -430 206 -485 246 -35 26 -40 32 -29 46 36 42 225 156 719 430 168 94 450 252 626 351 360 203 538 295 604 312 55 15 144 6 214 -21 28 -11 114 -63 191 -115 234 -159 460 -317 506 -355 24 -20 170 -126 323 -234 558 -395 964 -698 1090 -815 39 -36 96 -78 126 -92 30 -15 89 -57 130 -92 179 -155 302 -209 505 -223 243 -16 419 70 503 247 l36 75 0 155 c0 321 -41 372 -674 840 -173 128 -404 301 -514 384 -235 179 -250 189 -299 205 -20 7 -42 21 -47 31 -14 26 -174 155 -420 341 -219 164 -350 281 -370 329 -18 45 -6 72 59 133 77 71 315 228 461 304 168 87 813 461 943 547 277 182 409 325 453 490 17 62 18 200 3 281 -16 89 -61 178 -121 241 -66 70 -118 101 -194 116 -32 6 -71 19 -86 30 -29 20 -69 23 -98 8 -10 -5 -51 -17 -91 -25 -138 -29 -131 -26 -894 -480 -314 -187 -545 -318 -753 -426 -106 -54 -174 -62 -242 -27 -35 18 -48 31 -57 61 -34 102 -53 701 -53 1667 -1 1295 -24 1489 -199 1653 -110 103 -241 137 -391 101 -119 -28 -227 -112 -305 -238 -60 -98 -75 -151 -86 -296 -13 -176 -28 -1645 -29 -2736 l0 -921 -57 -45 c-120 -93 -333 -218 -913 -533 -190 -103 -370 -202 -400 -220 -30 -18 -136 -76 -235 -128 -99 -52 -220 -120 -270 -151 -87 -55 -347 -188 -392 -201 -19 -5 -23 0 -34 37 -14 54 -7 243 20 503 11 105 25 260 31 345 11 160 69 707 190 1790 104 933 146 1384 134 1448 -13 68 -32 61 -279 -112 -181 -127 -374 -270 -570 -424 -65 -52 -315 -236 -555 -410 -500 -363 -1261 -931 -1367 -1020 -40 -34 -84 -64 -98 -68 -14 -4 -33 -17 -41 -29 -8 -13 -26 -26 -39 -29 -13 -3 -84 -47 -158 -96 -74 -50 -138 -90 -142 -90 -9 0 0 870 15 1365 26 871 43 1233 60 1265 5 10 23 23 40 28 16 6 47 24 67 41 21 16 58 34 83 40 30 7 53 20 70 40 17 20 38 32 65 37 22 3 49 15 60 25 11 10 40 22 65 28 29 6 54 20 70 39 15 18 53 41 95 57 91 36 317 150 424 215 47 28 102 53 124 57 21 3 46 14 55 23 34 36 255 154 1002 535 743 379 974 509 1061 595 126 125 212 368 196 557 -11 147 -147 338 -291 408 -124 61 -274 66 -424 16 -64 -22 -807 -390 -1247 -618 -159 -82 -445 -230 -635 -327 -190 -98 -403 -211 -475 -252 -104 -58 -337 -164 -362 -164 -9 0 13 1044 37 1730 11 296 3 524 -20 609 -5 21 -21 53 -34 72 -14 19 -32 49 -42 67 -33 64 -159 161 -244 187 -79 24 -288 30 -359 10z m2439 -6896 c0 -66 -13 -243 -29 -392 -16 -150 -39 -366 -51 -482 -12 -115 -37 -329 -56 -475 -19 -146 -43 -359 -54 -475 -25 -269 -36 -342 -67 -440 -30 -93 -73 -145 -121 -145 -20 0 -44 -12 -71 -34 -23 -19 -95 -62 -161 -95 -151 -78 -148 -80 -126 122 8 78 20 216 27 307 6 91 13 168 15 172 4 5 18 139 68 643 21 203 29 358 21 394 -5 23 -12 31 -29 31 -33 0 -162 -84 -348 -227 -92 -70 -236 -181 -320 -245 -439 -337 -626 -473 -636 -463 -12 12 -14 313 -2 402 15 114 30 149 73 166 18 8 49 28 68 44 86 74 438 339 474 356 84 41 197 136 266 225 5 6 23 12 39 12 20 0 35 8 49 29 12 16 40 39 64 50 23 11 101 66 172 122 209 163 708 519 727 519 4 0 8 -54 8 -121z m-4958 85 c17 -9 60 -40 95 -70 34 -30 94 -69 131 -88 38 -19 77 -47 86 -61 23 -36 158 -121 224 -142 36 -12 52 -22 52 -34 0 -34 13 -50 71 -89 32 -22 85 -66 119 -97 36 -33 97 -74 143 -98 55 -27 86 -50 95 -67 27 -57 189 -168 243 -168 10 0 20 -9 24 -20 9 -29 61 -78 108 -102 23 -11 67 -46 100 -76 36 -35 89 -72 140 -97 58 -28 86 -48 95 -68 7 -15 29 -39 49 -55 93 -70 93 -69 93 -184 0 -142 -18 -375 -30 -399 -14 -25 -23 -24 -35 3 -18 41 -263 231 -370 286 -22 12 -75 53 -119 91 -43 39 -96 78 -116 87 -20 9 -45 29 -54 45 -11 18 -30 32 -54 39 -20 5 -60 29 -89 52 -29 24 -83 68 -120 99 -37 31 -81 63 -98 72 -16 8 -40 27 -52 41 -15 17 -33 26 -52 26 -16 0 -42 11 -58 23 -34 29 -85 47 -129 47 -27 0 -35 -5 -40 -24 -7 -30 30 -421 56 -581 11 -66 26 -199 35 -295 8 -96 21 -238 30 -315 8 -77 15 -164 15 -192 0 -52 -1 -53 -30 -53 -19 0 -33 7 -40 20 -6 10 -28 24 -50 30 -22 6 -44 19 -50 29 -13 26 -94 78 -133 87 -18 4 -38 15 -45 25 -7 11 -20 19 -28 19 -35 0 -76 152 -94 355 -19 211 -39 395 -64 590 -14 105 -32 285 -41 400 -9 116 -27 302 -41 415 -27 218 -41 441 -30 484 7 30 16 32 58 10z m-258 -3363 c10 -11 32 -23 50 -26 56 -11 66 -16 66 -31 0 -8 10 -14 23 -14 14 0 32 -11 44 -27 27 -37 121 -92 202 -120 45 -15 57 -23 39 -23 -16 0 -31 -8 -37 -19 -6 -11 -26 -21 -48 -25 -21 -3 -94 -33 -163 -67 -160 -78 -340 -156 -393 -170 -23 -5 -80 -32 -127 -59 -47 -27 -119 -61 -160 -76 -128 -46 -597 -283 -625 -316 -24 -29 -32 -69 -19 -103 12 -29 191 -107 441 -189 61 -21 117 -44 123 -52 7 -8 28 -14 47 -14 26 0 42 -9 71 -39 26 -27 62 -48 122 -71 47 -17 105 -42 130 -55 25 -12 97 -39 160 -58 63 -20 124 -43 135 -51 11 -9 34 -16 52 -16 71 0 -19 -73 -141 -114 -88 -30 -151 -64 -190 -102 -23 -24 -28 -25 -63 -13 -21 6 -97 38 -169 70 -72 31 -151 63 -175 69 -24 6 -121 47 -215 90 -94 43 -211 92 -260 110 -49 17 -120 47 -158 66 -50 24 -82 34 -117 34 -44 0 -48 2 -54 29 -7 32 -27 45 -55 36 -11 -3 -30 5 -48 20 -17 14 -61 36 -99 49 -37 13 -99 39 -138 56 -86 40 -171 70 -199 70 -11 0 -34 13 -51 28 -16 16 -48 34 -70 40 -51 15 -183 92 -214 126 -23 24 -23 26 -5 31 33 11 78 35 113 60 19 14 44 25 57 25 13 0 35 11 50 25 17 16 39 25 58 25 18 0 89 28 166 65 74 36 145 65 158 65 29 0 71 22 96 49 11 12 31 21 48 21 15 0 74 23 130 51 56 28 125 57 152 64 28 8 102 36 164 64 61 28 132 57 158 63 30 8 53 23 69 44 20 26 34 33 75 39 27 4 87 25 132 47 46 22 122 53 169 68 47 16 151 57 230 93 174 78 166 75 210 76 24 1 42 -6 53 -18z m5652 -107 c132 -38 338 -117 519 -199 88 -40 237 -103 330 -140 94 -37 233 -98 309 -137 77 -39 208 -99 290 -135 221 -96 416 -197 471 -245 45 -39 46 -42 29 -56 -60 -46 -503 -246 -1049 -474 -334 -139 -537 -226 -771 -329 -230 -102 -269 -111 -338 -81 -116 52 -400 235 -393 255 2 6 29 17 60 24 32 7 90 28 130 47 40 18 206 97 369 174 163 78 341 160 395 182 208 88 424 205 481 259 32 32 29 74 -8 101 -58 41 -390 195 -870 402 -194 84 -341 156 -375 182 -20 16 -19 16 15 46 44 38 264 150 295 150 12 0 63 -12 111 -26z m-4739 -2526 c-9 -139 -47 -526 -62 -649 -9 -64 -20 -192 -25 -285 -5 -93 -14 -192 -19 -221 -15 -74 -35 -444 -27 -487 12 -61 11 -62 341 177 77 56 141 110 150 126 8 16 25 31 39 35 32 8 165 97 193 130 13 14 30 26 39 26 21 0 82 44 199 144 55 47 108 86 119 86 10 0 33 16 51 35 25 26 34 31 39 20 3 -8 8 -115 11 -237 l6 -223 -123 -107 c-154 -133 -190 -161 -308 -233 -114 -70 -213 -142 -306 -222 -38 -33 -87 -71 -109 -85 -22 -14 -67 -49 -100 -78 -33 -28 -91 -72 -130 -97 -120 -79 -236 -165 -331 -244 -51 -42 -101 -80 -113 -84 -11 -3 -45 -27 -73 -51 -51 -44 -214 -132 -224 -121 -3 3 0 60 6 128 13 150 130 1228 166 1529 14 118 38 330 55 470 16 140 36 279 45 309 18 61 61 111 96 111 13 0 39 11 58 25 19 14 46 25 62 25 19 0 40 13 67 40 28 28 48 40 68 40 19 0 37 9 51 25 16 18 32 25 58 25 l37 0 -6 -82z m3721 -166 c22 -22 78 -58 124 -82 195 -100 210 -119 228 -290 37 -369 84 -797 101 -930 26 -212 99 -1005 99 -1085 0 -52 -3 -65 -15 -65 -32 0 -84 30 -161 91 -99 81 -255 190 -313 219 -24 12 -46 30 -48 41 -3 10 -24 27 -47 38 -22 10 -81 55 -129 100 -84 78 -91 83 -128 79 -34 -3 -39 -1 -39 17 0 26 -35 59 -125 118 -38 25 -101 73 -140 107 -38 33 -84 67 -101 74 -17 8 -54 34 -83 60 -28 25 -61 46 -72 46 -11 0 -33 14 -49 32 -21 22 -37 31 -59 30 -20 0 -31 4 -31 13 0 21 -64 80 -174 158 -54 39 -113 86 -131 104 -18 18 -41 33 -51 33 -28 1 -109 64 -144 111 -16 23 -33 57 -36 77 -7 34 12 380 22 414 5 17 7 16 32 -1 15 -11 43 -22 62 -25 25 -4 55 -25 103 -71 42 -40 95 -78 142 -101 40 -20 84 -47 96 -60 12 -13 32 -24 45 -24 12 0 29 -11 38 -25 9 -13 44 -43 78 -67 35 -23 91 -68 126 -101 60 -56 128 -96 163 -97 9 0 47 -32 85 -71 40 -41 92 -83 124 -99 30 -15 92 -56 138 -90 46 -34 100 -69 121 -78 21 -10 54 -35 74 -56 42 -44 83 -48 81 -7 0 13 7 32 18 43 21 21 22 36 8 161 -6 51 -19 193 -30 317 -10 124 -35 344 -55 490 -47 347 -54 450 -31 473 25 25 40 21 84 -21z" fill="#2993FC"/>
</g>
</svg>
